<?xml version="1.0" encoding="UTF-8"?>
<svg id="svg4" version="1.1" viewBox="0 0 16 16" xmlns="http://www.w3.org/2000/svg">
    <path class="color" id="path905" d="m8 0a8 8 0 0 0-8 8 8 8 0 0 0 8 8 8 8 0 0 0 8-8 8 8 0 0 0-8-8zm-3.2413 4.1302 3.2413 3.2413 3.2413-3.2413 0.62849 0.62849-3.2413 3.2413 3.2413 3.2413-0.62849 0.62849-3.2413-3.2413-3.2413 3.2413-0.62849-0.62849 3.2413-3.2413-3.2413-3.2413z" fill="#fff" />
    <path id="path905-3" class="error" d="m8 0a8 8 0 0 0-8 8 8 8 0 0 0 8 8 8 8 0 0 0 8-8 8 8 0 0 0-8-8zm-3.2413 4.1302 3.2413 3.2413 3.2413-3.2413 0.62849 0.62849-3.2413 3.2413 3.2413 3.2413-0.62849 0.62849-3.2413-3.2413-3.2413 3.2413-0.62849-0.62849 3.2413-3.2413-3.2413-3.2413z"  fill="#ff0404" opacity=".5" />
</svg>
